<mxfile host="app.diagrams.net" modified="2023-10-19T23:18:11.139Z" agent="Mozilla/5.0 (Macintosh; Intel Mac OS X 10_15_7) AppleWebKit/605.1.15 (KHTML, like Gecko) Version/16.6 Safari/605.1.15" etag="cn-YSL-0dLrbO3ppFZFi" version="22.0.5" type="device">
  <diagram id="C5RBs43oDa-KdzZeNtuy" name="Page-1">
    <mxGraphModel dx="954" dy="647" grid="1" gridSize="10" guides="1" tooltips="1" connect="1" arrows="1" fold="1" page="1" pageScale="1" pageWidth="827" pageHeight="1169" math="0" shadow="0">
      <root>
        <mxCell id="WIyWlLk6GJQsqaUBKTNV-0" />
        <mxCell id="WIyWlLk6GJQsqaUBKTNV-1" parent="WIyWlLk6GJQsqaUBKTNV-0" />
        <mxCell id="WIyWlLk6GJQsqaUBKTNV-3" value="RaspberryPi Starts" style="rounded=1;whiteSpace=wrap;html=1;fontSize=12;glass=0;strokeWidth=1;shadow=0;" parent="WIyWlLk6GJQsqaUBKTNV-1" vertex="1">
          <mxGeometry x="354" y="10" width="120" height="40" as="geometry" />
        </mxCell>
        <mxCell id="zqBNCgIqxui1xnD7hiWk-96" style="edgeStyle=orthogonalEdgeStyle;rounded=0;orthogonalLoop=1;jettySize=auto;html=1;entryX=0;entryY=0.25;entryDx=0;entryDy=0;" edge="1" parent="WIyWlLk6GJQsqaUBKTNV-1" source="zqBNCgIqxui1xnD7hiWk-1" target="zqBNCgIqxui1xnD7hiWk-97">
          <mxGeometry relative="1" as="geometry">
            <mxPoint x="90" y="90" as="targetPoint" />
            <Array as="points">
              <mxPoint x="20" y="30" />
              <mxPoint x="20" y="90" />
            </Array>
          </mxGeometry>
        </mxCell>
        <mxCell id="zqBNCgIqxui1xnD7hiWk-1" value="Serial Logger Starts" style="rounded=1;whiteSpace=wrap;html=1;fontSize=12;glass=0;strokeWidth=1;shadow=0;" vertex="1" parent="WIyWlLk6GJQsqaUBKTNV-1">
          <mxGeometry x="40" y="10" width="120" height="40" as="geometry" />
        </mxCell>
        <mxCell id="zqBNCgIqxui1xnD7hiWk-6" value="" style="edgeStyle=orthogonalEdgeStyle;rounded=0;orthogonalLoop=1;jettySize=auto;html=1;exitX=1;exitY=0.5;exitDx=0;exitDy=0;" edge="1" parent="WIyWlLk6GJQsqaUBKTNV-1" source="zqBNCgIqxui1xnD7hiWk-2" target="zqBNCgIqxui1xnD7hiWk-5">
          <mxGeometry relative="1" as="geometry">
            <mxPoint x="444" y="50" as="sourcePoint" />
          </mxGeometry>
        </mxCell>
        <mxCell id="zqBNCgIqxui1xnD7hiWk-2" value="RaspberryPi Starts" style="rounded=1;whiteSpace=wrap;html=1;fontSize=12;glass=0;strokeWidth=1;shadow=0;" vertex="1" parent="WIyWlLk6GJQsqaUBKTNV-1">
          <mxGeometry x="354" y="10" width="120" height="40" as="geometry" />
        </mxCell>
        <mxCell id="zqBNCgIqxui1xnD7hiWk-12" value="" style="edgeStyle=orthogonalEdgeStyle;rounded=0;orthogonalLoop=1;jettySize=auto;html=1;" edge="1" parent="WIyWlLk6GJQsqaUBKTNV-1" target="zqBNCgIqxui1xnD7hiWk-4">
          <mxGeometry relative="1" as="geometry">
            <mxPoint x="630" y="50" as="sourcePoint" />
          </mxGeometry>
        </mxCell>
        <mxCell id="zqBNCgIqxui1xnD7hiWk-3" value="Arduino Starts" style="rounded=1;whiteSpace=wrap;html=1;fontSize=12;glass=0;strokeWidth=1;shadow=0;" vertex="1" parent="WIyWlLk6GJQsqaUBKTNV-1">
          <mxGeometry x="540" y="10" width="120" height="40" as="geometry" />
        </mxCell>
        <mxCell id="zqBNCgIqxui1xnD7hiWk-24" value="" style="edgeStyle=orthogonalEdgeStyle;rounded=0;orthogonalLoop=1;jettySize=auto;html=1;entryX=0;entryY=0.25;entryDx=0;entryDy=0;entryPerimeter=0;" edge="1" parent="WIyWlLk6GJQsqaUBKTNV-1" source="zqBNCgIqxui1xnD7hiWk-4" target="zqBNCgIqxui1xnD7hiWk-98">
          <mxGeometry relative="1" as="geometry">
            <mxPoint x="550" y="210" as="targetPoint" />
          </mxGeometry>
        </mxCell>
        <mxCell id="zqBNCgIqxui1xnD7hiWk-4" value="setup()" style="rounded=1;whiteSpace=wrap;html=1;fontSize=12;glass=0;strokeWidth=1;shadow=0;" vertex="1" parent="WIyWlLk6GJQsqaUBKTNV-1">
          <mxGeometry x="570" y="90" width="120" height="40" as="geometry" />
        </mxCell>
        <mxCell id="zqBNCgIqxui1xnD7hiWk-83" style="edgeStyle=orthogonalEdgeStyle;rounded=0;orthogonalLoop=1;jettySize=auto;html=1;entryX=1;entryY=0.5;entryDx=0;entryDy=0;" edge="1" parent="WIyWlLk6GJQsqaUBKTNV-1" source="zqBNCgIqxui1xnD7hiWk-5" target="zqBNCgIqxui1xnD7hiWk-14">
          <mxGeometry relative="1" as="geometry">
            <mxPoint x="460" y="190" as="targetPoint" />
            <Array as="points">
              <mxPoint x="480" y="190" />
              <mxPoint x="335" y="190" />
              <mxPoint x="335" y="200" />
            </Array>
          </mxGeometry>
        </mxCell>
        <mxCell id="zqBNCgIqxui1xnD7hiWk-5" value="Scan for Boxes" style="rounded=1;whiteSpace=wrap;html=1;fontSize=12;glass=0;strokeWidth=1;shadow=0;" vertex="1" parent="WIyWlLk6GJQsqaUBKTNV-1">
          <mxGeometry x="440" y="70" width="120" height="40" as="geometry" />
        </mxCell>
        <mxCell id="zqBNCgIqxui1xnD7hiWk-17" value="" style="edgeStyle=orthogonalEdgeStyle;rounded=0;orthogonalLoop=1;jettySize=auto;html=1;entryX=0.5;entryY=0;entryDx=0;entryDy=0;" edge="1" parent="WIyWlLk6GJQsqaUBKTNV-1" source="zqBNCgIqxui1xnD7hiWk-14" target="zqBNCgIqxui1xnD7hiWk-16">
          <mxGeometry relative="1" as="geometry">
            <Array as="points">
              <mxPoint x="275" y="210" />
            </Array>
          </mxGeometry>
        </mxCell>
        <mxCell id="zqBNCgIqxui1xnD7hiWk-14" value="Closest Box Determined" style="rounded=1;whiteSpace=wrap;html=1;fontSize=12;glass=0;strokeWidth=1;shadow=0;" vertex="1" parent="WIyWlLk6GJQsqaUBKTNV-1">
          <mxGeometry x="110" y="180" width="120" height="40" as="geometry" />
        </mxCell>
        <mxCell id="zqBNCgIqxui1xnD7hiWk-19" value="" style="edgeStyle=orthogonalEdgeStyle;rounded=0;orthogonalLoop=1;jettySize=auto;html=1;" edge="1" parent="WIyWlLk6GJQsqaUBKTNV-1" source="zqBNCgIqxui1xnD7hiWk-16" target="zqBNCgIqxui1xnD7hiWk-18">
          <mxGeometry relative="1" as="geometry" />
        </mxCell>
        <mxCell id="zqBNCgIqxui1xnD7hiWk-16" value="Direction To Center Box Determined (Including None)" style="rounded=1;whiteSpace=wrap;html=1;fontSize=12;glass=0;strokeWidth=1;shadow=0;" vertex="1" parent="WIyWlLk6GJQsqaUBKTNV-1">
          <mxGeometry x="210" y="245" width="130" height="50" as="geometry" />
        </mxCell>
        <mxCell id="zqBNCgIqxui1xnD7hiWk-88" style="edgeStyle=orthogonalEdgeStyle;rounded=0;orthogonalLoop=1;jettySize=auto;html=1;entryX=0;entryY=0.75;entryDx=0;entryDy=0;entryPerimeter=0;" edge="1" parent="WIyWlLk6GJQsqaUBKTNV-1" source="zqBNCgIqxui1xnD7hiWk-18" target="zqBNCgIqxui1xnD7hiWk-105">
          <mxGeometry relative="1" as="geometry">
            <mxPoint x="260" y="130" as="targetPoint" />
            <Array as="points">
              <mxPoint x="410" y="170" />
              <mxPoint x="280" y="170" />
              <mxPoint x="280" y="130" />
            </Array>
          </mxGeometry>
        </mxCell>
        <mxCell id="zqBNCgIqxui1xnD7hiWk-18" value="Direction sent to Arduino" style="rounded=1;whiteSpace=wrap;html=1;fontSize=12;glass=0;strokeWidth=1;shadow=0;" vertex="1" parent="WIyWlLk6GJQsqaUBKTNV-1">
          <mxGeometry x="400" y="230" width="120" height="40" as="geometry" />
        </mxCell>
        <mxCell id="zqBNCgIqxui1xnD7hiWk-35" value="" style="edgeStyle=orthogonalEdgeStyle;rounded=0;orthogonalLoop=1;jettySize=auto;html=1;" edge="1" parent="WIyWlLk6GJQsqaUBKTNV-1" source="zqBNCgIqxui1xnD7hiWk-28" target="zqBNCgIqxui1xnD7hiWk-34">
          <mxGeometry relative="1" as="geometry" />
        </mxCell>
        <mxCell id="zqBNCgIqxui1xnD7hiWk-28" value="Interpret Instruction" style="rounded=1;whiteSpace=wrap;html=1;fontSize=12;glass=0;strokeWidth=1;shadow=0;" vertex="1" parent="WIyWlLk6GJQsqaUBKTNV-1">
          <mxGeometry x="610" y="330" width="120" height="40" as="geometry" />
        </mxCell>
        <mxCell id="zqBNCgIqxui1xnD7hiWk-44" value="" style="edgeStyle=orthogonalEdgeStyle;rounded=0;orthogonalLoop=1;jettySize=auto;html=1;" edge="1" parent="WIyWlLk6GJQsqaUBKTNV-1" source="zqBNCgIqxui1xnD7hiWk-32" target="zqBNCgIqxui1xnD7hiWk-43">
          <mxGeometry relative="1" as="geometry" />
        </mxCell>
        <mxCell id="zqBNCgIqxui1xnD7hiWk-32" value="Execute Direction Instruction" style="rounded=1;whiteSpace=wrap;html=1;fontSize=12;glass=0;strokeWidth=1;shadow=0;" vertex="1" parent="WIyWlLk6GJQsqaUBKTNV-1">
          <mxGeometry x="270" y="330" width="120" height="40" as="geometry" />
        </mxCell>
        <mxCell id="zqBNCgIqxui1xnD7hiWk-36" value="" style="edgeStyle=orthogonalEdgeStyle;rounded=0;orthogonalLoop=1;jettySize=auto;html=1;" edge="1" parent="WIyWlLk6GJQsqaUBKTNV-1" source="zqBNCgIqxui1xnD7hiWk-34" target="zqBNCgIqxui1xnD7hiWk-32">
          <mxGeometry relative="1" as="geometry" />
        </mxCell>
        <mxCell id="zqBNCgIqxui1xnD7hiWk-42" value="" style="edgeStyle=orthogonalEdgeStyle;rounded=0;orthogonalLoop=1;jettySize=auto;html=1;" edge="1" parent="WIyWlLk6GJQsqaUBKTNV-1" source="zqBNCgIqxui1xnD7hiWk-34" target="zqBNCgIqxui1xnD7hiWk-40">
          <mxGeometry relative="1" as="geometry">
            <Array as="points">
              <mxPoint x="490" y="410" />
              <mxPoint x="710" y="410" />
            </Array>
          </mxGeometry>
        </mxCell>
        <mxCell id="zqBNCgIqxui1xnD7hiWk-34" value="&lt;font style=&quot;font-size: 11px;&quot;&gt;Instruction&lt;br&gt;!=&lt;br&gt;&#39;Grip&#39;&lt;/font&gt;" style="rhombus;whiteSpace=wrap;html=1;rounded=1;glass=0;strokeWidth=1;shadow=0;" vertex="1" parent="WIyWlLk6GJQsqaUBKTNV-1">
          <mxGeometry x="440" y="300" width="100" height="100" as="geometry" />
        </mxCell>
        <mxCell id="zqBNCgIqxui1xnD7hiWk-37" value="Yes" style="text;html=1;strokeColor=none;fillColor=none;align=center;verticalAlign=middle;whiteSpace=wrap;rounded=0;" vertex="1" parent="WIyWlLk6GJQsqaUBKTNV-1">
          <mxGeometry x="390" y="320" width="60" height="30" as="geometry" />
        </mxCell>
        <mxCell id="zqBNCgIqxui1xnD7hiWk-47" value="" style="edgeStyle=orthogonalEdgeStyle;rounded=0;orthogonalLoop=1;jettySize=auto;html=1;" edge="1" parent="WIyWlLk6GJQsqaUBKTNV-1" source="zqBNCgIqxui1xnD7hiWk-40" target="zqBNCgIqxui1xnD7hiWk-46">
          <mxGeometry relative="1" as="geometry" />
        </mxCell>
        <mxCell id="zqBNCgIqxui1xnD7hiWk-40" value="Execute Grip Instruction" style="rounded=1;whiteSpace=wrap;html=1;fontSize=12;glass=0;strokeWidth=1;shadow=0;" vertex="1" parent="WIyWlLk6GJQsqaUBKTNV-1">
          <mxGeometry x="660" y="440" width="120" height="40" as="geometry" />
        </mxCell>
        <mxCell id="zqBNCgIqxui1xnD7hiWk-107" style="edgeStyle=orthogonalEdgeStyle;rounded=0;orthogonalLoop=1;jettySize=auto;html=1;entryX=-0.05;entryY=0.375;entryDx=0;entryDy=0;entryPerimeter=0;" edge="1" parent="WIyWlLk6GJQsqaUBKTNV-1" source="zqBNCgIqxui1xnD7hiWk-43" target="zqBNCgIqxui1xnD7hiWk-105">
          <mxGeometry relative="1" as="geometry">
            <mxPoint x="90" y="160" as="targetPoint" />
            <Array as="points">
              <mxPoint x="80" y="350" />
              <mxPoint x="80" y="160" />
              <mxPoint x="240" y="160" />
              <mxPoint x="240" y="100" />
            </Array>
          </mxGeometry>
        </mxCell>
        <mxCell id="zqBNCgIqxui1xnD7hiWk-43" value="Set Status" style="rounded=1;whiteSpace=wrap;html=1;fontSize=12;glass=0;strokeWidth=1;shadow=0;" vertex="1" parent="WIyWlLk6GJQsqaUBKTNV-1">
          <mxGeometry x="110" y="330" width="120" height="40" as="geometry" />
        </mxCell>
        <mxCell id="zqBNCgIqxui1xnD7hiWk-57" value="" style="edgeStyle=orthogonalEdgeStyle;rounded=0;orthogonalLoop=1;jettySize=auto;html=1;" edge="1" parent="WIyWlLk6GJQsqaUBKTNV-1" source="zqBNCgIqxui1xnD7hiWk-46" target="zqBNCgIqxui1xnD7hiWk-56">
          <mxGeometry relative="1" as="geometry" />
        </mxCell>
        <mxCell id="zqBNCgIqxui1xnD7hiWk-46" value="Execute Grip Instruction" style="rounded=1;whiteSpace=wrap;html=1;fontSize=12;glass=0;strokeWidth=1;shadow=0;" vertex="1" parent="WIyWlLk6GJQsqaUBKTNV-1">
          <mxGeometry x="504" y="440" width="120" height="40" as="geometry" />
        </mxCell>
        <mxCell id="zqBNCgIqxui1xnD7hiWk-59" value="" style="edgeStyle=orthogonalEdgeStyle;rounded=0;orthogonalLoop=1;jettySize=auto;html=1;" edge="1" parent="WIyWlLk6GJQsqaUBKTNV-1" source="zqBNCgIqxui1xnD7hiWk-56" target="zqBNCgIqxui1xnD7hiWk-58">
          <mxGeometry relative="1" as="geometry" />
        </mxCell>
        <mxCell id="zqBNCgIqxui1xnD7hiWk-56" value="Lower To Box" style="rounded=1;whiteSpace=wrap;html=1;fontSize=12;glass=0;strokeWidth=1;shadow=0;" vertex="1" parent="WIyWlLk6GJQsqaUBKTNV-1">
          <mxGeometry x="330" y="400" width="120" height="40" as="geometry" />
        </mxCell>
        <mxCell id="zqBNCgIqxui1xnD7hiWk-61" value="" style="edgeStyle=orthogonalEdgeStyle;rounded=0;orthogonalLoop=1;jettySize=auto;html=1;" edge="1" parent="WIyWlLk6GJQsqaUBKTNV-1" source="zqBNCgIqxui1xnD7hiWk-58">
          <mxGeometry relative="1" as="geometry">
            <mxPoint x="100" y="490" as="targetPoint" />
          </mxGeometry>
        </mxCell>
        <mxCell id="zqBNCgIqxui1xnD7hiWk-58" value="Grab Box" style="rounded=1;whiteSpace=wrap;html=1;fontSize=12;glass=0;strokeWidth=1;shadow=0;" vertex="1" parent="WIyWlLk6GJQsqaUBKTNV-1">
          <mxGeometry x="170" y="400" width="120" height="40" as="geometry" />
        </mxCell>
        <mxCell id="zqBNCgIqxui1xnD7hiWk-64" value="" style="edgeStyle=orthogonalEdgeStyle;rounded=0;orthogonalLoop=1;jettySize=auto;html=1;" edge="1" parent="WIyWlLk6GJQsqaUBKTNV-1" source="zqBNCgIqxui1xnD7hiWk-60" target="zqBNCgIqxui1xnD7hiWk-63">
          <mxGeometry relative="1" as="geometry" />
        </mxCell>
        <mxCell id="zqBNCgIqxui1xnD7hiWk-60" value="Grab Box" style="rounded=1;whiteSpace=wrap;html=1;fontSize=12;glass=0;strokeWidth=1;shadow=0;" vertex="1" parent="WIyWlLk6GJQsqaUBKTNV-1">
          <mxGeometry x="40" y="490" width="120" height="40" as="geometry" />
        </mxCell>
        <mxCell id="zqBNCgIqxui1xnD7hiWk-66" value="" style="edgeStyle=orthogonalEdgeStyle;rounded=0;orthogonalLoop=1;jettySize=auto;html=1;" edge="1" parent="WIyWlLk6GJQsqaUBKTNV-1" source="zqBNCgIqxui1xnD7hiWk-63" target="zqBNCgIqxui1xnD7hiWk-65">
          <mxGeometry relative="1" as="geometry" />
        </mxCell>
        <mxCell id="zqBNCgIqxui1xnD7hiWk-63" value="Find Corner" style="rounded=1;whiteSpace=wrap;html=1;fontSize=12;glass=0;strokeWidth=1;shadow=0;" vertex="1" parent="WIyWlLk6GJQsqaUBKTNV-1">
          <mxGeometry x="200" y="490" width="120" height="40" as="geometry" />
        </mxCell>
        <mxCell id="zqBNCgIqxui1xnD7hiWk-68" value="" style="edgeStyle=orthogonalEdgeStyle;rounded=0;orthogonalLoop=1;jettySize=auto;html=1;" edge="1" parent="WIyWlLk6GJQsqaUBKTNV-1" source="zqBNCgIqxui1xnD7hiWk-65" target="zqBNCgIqxui1xnD7hiWk-67">
          <mxGeometry relative="1" as="geometry" />
        </mxCell>
        <mxCell id="zqBNCgIqxui1xnD7hiWk-65" value="Lower Fully" style="rounded=1;whiteSpace=wrap;html=1;fontSize=12;glass=0;strokeWidth=1;shadow=0;" vertex="1" parent="WIyWlLk6GJQsqaUBKTNV-1">
          <mxGeometry x="354" y="510" width="120" height="40" as="geometry" />
        </mxCell>
        <mxCell id="zqBNCgIqxui1xnD7hiWk-70" value="" style="edgeStyle=orthogonalEdgeStyle;rounded=0;orthogonalLoop=1;jettySize=auto;html=1;" edge="1" parent="WIyWlLk6GJQsqaUBKTNV-1" source="zqBNCgIqxui1xnD7hiWk-67" target="zqBNCgIqxui1xnD7hiWk-69">
          <mxGeometry relative="1" as="geometry" />
        </mxCell>
        <mxCell id="zqBNCgIqxui1xnD7hiWk-67" value="Drop Box" style="rounded=1;whiteSpace=wrap;html=1;fontSize=12;glass=0;strokeWidth=1;shadow=0;" vertex="1" parent="WIyWlLk6GJQsqaUBKTNV-1">
          <mxGeometry x="510" y="510" width="120" height="40" as="geometry" />
        </mxCell>
        <mxCell id="zqBNCgIqxui1xnD7hiWk-86" style="edgeStyle=orthogonalEdgeStyle;rounded=0;orthogonalLoop=1;jettySize=auto;html=1;entryX=0.333;entryY=1;entryDx=0;entryDy=0;entryPerimeter=0;" edge="1" parent="WIyWlLk6GJQsqaUBKTNV-1" source="zqBNCgIqxui1xnD7hiWk-69" target="zqBNCgIqxui1xnD7hiWk-43">
          <mxGeometry relative="1" as="geometry">
            <mxPoint x="150" y="390" as="targetPoint" />
            <Array as="points">
              <mxPoint x="720" y="580" />
              <mxPoint x="21" y="580" />
              <mxPoint x="21" y="390" />
              <mxPoint x="150" y="390" />
            </Array>
          </mxGeometry>
        </mxCell>
        <mxCell id="zqBNCgIqxui1xnD7hiWk-69" value="Reset To Center" style="rounded=1;whiteSpace=wrap;html=1;fontSize=12;glass=0;strokeWidth=1;shadow=0;" vertex="1" parent="WIyWlLk6GJQsqaUBKTNV-1">
          <mxGeometry x="660" y="510" width="120" height="40" as="geometry" />
        </mxCell>
        <mxCell id="zqBNCgIqxui1xnD7hiWk-93" value="" style="edgeStyle=orthogonalEdgeStyle;rounded=0;orthogonalLoop=1;jettySize=auto;html=1;" edge="1" parent="WIyWlLk6GJQsqaUBKTNV-1" source="zqBNCgIqxui1xnD7hiWk-43" target="zqBNCgIqxui1xnD7hiWk-97">
          <mxGeometry relative="1" as="geometry">
            <mxPoint x="90" y="130" as="targetPoint" />
            <mxPoint x="110" y="350" as="sourcePoint" />
            <Array as="points">
              <mxPoint x="20" y="350" />
              <mxPoint x="20" y="130" />
            </Array>
          </mxGeometry>
        </mxCell>
        <mxCell id="zqBNCgIqxui1xnD7hiWk-97" value="Create Log" style="shape=or;whiteSpace=wrap;html=1;" vertex="1" parent="WIyWlLk6GJQsqaUBKTNV-1">
          <mxGeometry x="140" y="70" width="60" height="80" as="geometry" />
        </mxCell>
        <mxCell id="zqBNCgIqxui1xnD7hiWk-102" style="edgeStyle=orthogonalEdgeStyle;rounded=0;orthogonalLoop=1;jettySize=auto;html=1;entryX=0.5;entryY=0;entryDx=0;entryDy=0;exitX=1;exitY=0.5;exitDx=0;exitDy=0;exitPerimeter=0;" edge="1" parent="WIyWlLk6GJQsqaUBKTNV-1">
          <mxGeometry relative="1" as="geometry">
            <mxPoint x="645" y="230" as="sourcePoint" />
            <mxPoint x="675" y="330" as="targetPoint" />
            <Array as="points">
              <mxPoint x="675" y="230" />
            </Array>
          </mxGeometry>
        </mxCell>
        <mxCell id="zqBNCgIqxui1xnD7hiWk-98" value="Receive Instruction" style="shape=or;whiteSpace=wrap;html=1;" vertex="1" parent="WIyWlLk6GJQsqaUBKTNV-1">
          <mxGeometry x="570" y="190" width="70" height="80" as="geometry" />
        </mxCell>
        <mxCell id="zqBNCgIqxui1xnD7hiWk-104" style="edgeStyle=orthogonalEdgeStyle;rounded=0;orthogonalLoop=1;jettySize=auto;html=1;entryX=0;entryY=0.75;entryDx=0;entryDy=0;entryPerimeter=0;" edge="1" parent="WIyWlLk6GJQsqaUBKTNV-1" source="zqBNCgIqxui1xnD7hiWk-18" target="zqBNCgIqxui1xnD7hiWk-98">
          <mxGeometry relative="1" as="geometry" />
        </mxCell>
        <mxCell id="zqBNCgIqxui1xnD7hiWk-106" style="edgeStyle=orthogonalEdgeStyle;rounded=0;orthogonalLoop=1;jettySize=auto;html=1;entryX=0;entryY=0.5;entryDx=0;entryDy=0;" edge="1" parent="WIyWlLk6GJQsqaUBKTNV-1" source="zqBNCgIqxui1xnD7hiWk-105" target="zqBNCgIqxui1xnD7hiWk-5">
          <mxGeometry relative="1" as="geometry" />
        </mxCell>
        <mxCell id="zqBNCgIqxui1xnD7hiWk-105" value="Request Status" style="shape=or;whiteSpace=wrap;html=1;" vertex="1" parent="WIyWlLk6GJQsqaUBKTNV-1">
          <mxGeometry x="300" y="70" width="60" height="80" as="geometry" />
        </mxCell>
        <mxCell id="zqBNCgIqxui1xnD7hiWk-109" value="No" style="text;html=1;strokeColor=none;fillColor=none;align=center;verticalAlign=middle;whiteSpace=wrap;rounded=0;" vertex="1" parent="WIyWlLk6GJQsqaUBKTNV-1">
          <mxGeometry x="534" y="380" width="60" height="30" as="geometry" />
        </mxCell>
      </root>
    </mxGraphModel>
  </diagram>
</mxfile>
